# xmcd
#
# Track frame offsets: 
#        150
#        21150
#        35526
#        55349
#        78707
#        93435
#        115808
#        130465
#        169598
#        188826
#
# Disc length: 2857 seconds
#
# Revision: 0
# Processed by: cddbd v1.5.2PL0 Copyright (c) Steve Scherf et al.
# Submitted via: ExactAudioCopy v1.3
#
DISCID=830b270a
DTITLE=Tad Robinson - Real Street
DYEAR=2019
DGENRE=Blues
TTITLE0=Changes
TTITLE1=Full Grown Woman
TTITLE2=Search Your Heart
TTITLE3=Love in the Neighborhood
TTITLE4=Wishing Well Blues
TTITLE5=You Got It
TTITLE6=You Are My Dream
TTITLE7=Make It with You
TTITLE8=Real Street
TTITLE9=Long Way Home
EXTD=
EXTT0=
EXTT1=
EXTT2=
EXTT3=
EXTT4=
EXTT5=
EXTT6=
EXTT7=
EXTT8=
EXTT9=
PLAYORDER=
